<svg width="20" height="21" viewBox="0 0 20 21" fill="none" xmlns="http://www.w3.org/2000/svg">
<g clip-path="url(#clip0)">
<path d="M17.9 9.72043H9.39999V10.9204H17.9L15.8 13.0204L16.7 13.9204L19.8 10.8204C19.8974 10.6906 19.95 10.5327 19.95 10.3704C19.95 10.2082 19.8974 10.0503 19.8 9.92044L16.7 6.82043L15.8 7.72043L17.9 9.72043Z" fill="black"/>
<path d="M8.10001 19.7204V13.5204C8.08846 13.3651 8.02154 13.2192 7.91142 13.109C7.80131 12.9989 7.65532 12.932 7.50001 12.9204H3.10001C3.10516 13.2371 3.23325 13.5393 3.45718 13.7633C3.68112 13.9872 3.98336 14.1153 4.30001 14.1204H6.80001V19.1204H3.10001C2.86326 19.1353 2.62591 19.1029 2.40176 19.0253C2.17762 18.9476 1.97115 18.8261 1.79436 18.6679C1.61757 18.5098 1.47399 18.318 1.37196 18.1039C1.26992 17.8897 1.21148 17.6574 1.20001 17.4204V3.42045C1.19181 2.95773 1.36516 2.5102 1.68292 2.17375C2.00069 1.8373 2.43758 1.63868 2.90001 1.62045H6.80001V6.62045H4.40001C4.08336 6.6256 3.78112 6.75368 3.55718 6.97762C3.33325 7.20155 3.20516 7.50379 3.20001 7.82045H7.60001C7.75531 7.8089 7.90131 7.74197 8.01142 7.63186C8.12154 7.52174 8.18846 7.37575 8.20001 7.22045V0.920447C8.15232 0.764307 8.06117 0.624968 7.93721 0.518719C7.81325 0.41247 7.66161 0.343699 7.50001 0.320447H3.10001C2.70599 0.307094 2.31321 0.371535 1.94411 0.510086C1.57501 0.648636 1.23684 0.858579 0.948933 1.12791C0.661026 1.39724 0.42903 1.72068 0.266207 2.07974C0.103385 2.43879 0.01293 2.82641 1.46306e-05 3.22045V17.1204C-0.0289644 17.5181 0.0246504 17.9174 0.157487 18.2934C0.290324 18.6693 0.499509 19.0137 0.771886 19.3048C1.04426 19.596 1.37394 19.8276 1.74019 19.9852C2.10643 20.1428 2.50132 20.2229 2.90001 20.2204H7.50001C7.5735 20.2355 7.64943 20.2338 7.72216 20.2154C7.7949 20.1971 7.86259 20.1627 7.92021 20.1147C7.97783 20.0667 8.02391 20.0063 8.05504 19.9381C8.08616 19.8698 8.10153 19.7954 8.10001 19.7204Z" fill="black"/>
</g>
<defs>
<clipPath id="clip0">
<rect width="20" height="20" fill="white" transform="translate(0 0.320435)"/>
</clipPath>
</defs>
</svg>
